<svg xmlns:xlink="http://www.w3.org/1999/xlink" xmlns="http://www.w3.org/2000/svg" xml:space="preserve" xmlns:vectornator="http://vectornator.io" version="1.1" viewBox="0 0 24 24">
    <path d="M11.0204+6.47602L10.1125+0.426C10.0765+0.18+9.86544+3.32139e-07+9.61845+3.32139e-07C9.61344+3.32139e-07+9.60744+3.32139e-07+9.60144+3.32139e-07C9.34742+0.00801596+9.14042+0.204985+9.12045+0.458016L8.68245+5.71102C8.65545+6.03502+8.08044+6.03502+8.05344+5.71102L7.61647+0.458016C7.59444+0.198985+7.37844+3.32139e-07+7.11847+3.32139e-07C6.85845+3.32139e-07+6.64147+0.198985+6.62047+0.458016L6.18247+5.71102C6.15547+6.03502+5.58045+6.03502+5.55345+5.71102L5.11644+0.458016C5.09544+0.206016+4.88844+0.00900031+4.63442+3.32139e-07C4.62842+3.32139e-07+4.62341+3.32139e-07+4.61844+3.32139e-07C4.37145+3.32139e-07+4.16042+0.18+4.12442+0.426L3.21744+6.47602C2.95044+8.24902+3.91245+9.945+5.53442+10.652L4.76244+21.472C4.71645+22.123+4.94445+22.77+5.38944+23.248C5.83344+23.726+6.46245+24+7.11645+24L7.12044+24C7.77345+24+8.40345+23.726+8.84844+23.248C9.29342+22.77+9.52142+22.123+9.47544+21.472L8.70345+10.652C10.3255+9.945+11.2874+8.24902+11.0204+6.47602Z" opacity="1" fill="currentColor" />
    <path d="M17.7531+0.092016C17.6391-0.00196842+17.4923-0.0239997+17.3602+0.029016C17.3231+0.044016+13.6184+1.62+13.6184+6.50002C13.6184+10.013+14.6055+11.787+15.1607+12.507L14.6081+13.147C14.5373+13.229+14.4932+13.336+14.4837+13.451L13.8006+21.362C13.7419+22.035+13.9328+22.709+14.3248+23.211C14.7169+23.713+15.279+24+15.8628+24C17.0053+24+17.9354+22.923+17.9354+21.6L17.9354+0.500016C17.9362+0.336985+17.868+0.186+17.7531+0.092016Z" opacity="1" fill="currentColor" />
</svg>